
      <svg data-logo="logo" xmlns="http://www.w3.org/2000/svg" viewBox="0 0 217 43">
        <g id="logogram" transform="translate(0, 1) rotate(0) "><path d="M65.2314 9.32458C62.3969 6.45393 59.0318 4.17673 55.3285 2.62316C51.625 1.06959 47.6558 0.269989 43.6472 0.269989C39.6386 0.269989 35.6694 1.06959 31.966 2.62316C28.2626 4.17673 24.8976 6.45393 22.0631 9.32458L43.6472 31.1841L65.2314 9.32458Z" fill="#FFD200"/><path d="M43.6743 31.2155C46.5088 34.0862 49.8737 36.3632 53.5772 37.9168C57.2805 39.4704 61.2499 40.27 65.2584 40.27C69.2668 40.27 73.2366 39.4704 76.9399 37.9168C80.6431 36.3632 84.0085 34.0862 86.8428 31.2155L65.2584 9.35593L43.6743 31.2155Z" fill="#06E07F"/><path d="M43.6209 31.2107C40.7864 34.0814 37.4214 36.3585 33.718 37.912C30.0146 39.4656 26.0454 40.2652 22.0368 40.2652C18.0282 40.2652 14.059 39.4656 10.3555 37.912C6.65217 36.3585 3.28711 34.0814 0.452637 31.2107L22.0368 9.35114L43.6209 31.2107Z" fill="#E3073C"/><path d="M65.2847 9.3293C68.1188 6.45865 71.4842 4.18156 75.1875 2.62798C78.8907 1.07441 82.8605 0.274811 86.8686 0.274811C90.8777 0.274811 94.8465 1.07441 98.5498 2.62798C102.253 4.18156 105.618 6.45865 108.453 9.3293L86.8686 31.1889L65.2847 9.3293Z" fill="#1F84EF"/></g>
        <g id="logotype" transform="translate(115, 12.5)"><path fill="#000000" d="M8.83 15L6.36 15L10.09 4.09L13.02 4.09L16.84 15L14.36 15L12.61 9.73Q12.29 8.72 11.97 7.50Q11.64 6.29 11.28 4.86L11.28 4.86L11.76 4.86Q11.42 6.30 11.12 7.52Q10.81 8.74 10.51 9.73L10.51 9.73L8.83 15ZM14.51 12.47L8.69 12.47L8.69 10.72L14.51 10.72L14.51 12.47ZM17.21 4.09L19.45 4.09L19.45 15L17.21 15L17.21 4.09ZM20.49 9.64L25.45 9.64L25.45 11.39L20.49 11.39L20.49 9.64ZM29.39 5.94L26.05 5.94L26.05 4.09L34.96 4.09L34.96 5.94L31.63 5.94L31.63 15L29.39 15L29.39 5.94ZM37.67 15L35.48 15L35.48 6.81L37.60 6.81L37.60 8.24L37.69 8.24Q37.92 7.48 38.45 7.09Q38.98 6.70 39.67 6.70L39.67 6.70Q39.83 6.70 40.03 6.72Q40.22 6.74 40.38 6.77L40.38 6.77L40.38 8.74Q40.23 8.69 39.95 8.66Q39.67 8.63 39.42 8.63L39.42 8.63Q38.93 8.63 38.52 8.84Q38.12 9.06 37.90 9.44Q37.67 9.83 37.67 10.34L37.67 10.34L37.67 15ZM42.81 15L40.61 15L40.61 6.81L42.81 6.81L42.81 15ZM41.71 5.74L41.71 5.74Q41.21 5.74 40.86 5.41Q40.51 5.08 40.51 4.61L40.51 4.61Q40.51 4.15 40.86 3.82Q41.21 3.49 41.71 3.49L41.71 3.49Q42.21 3.49 42.56 3.81Q42.92 4.14 42.92 4.61L42.92 4.61Q42.92 5.08 42.56 5.41Q42.21 5.74 41.71 5.74ZM45.90 18.06L43.70 18.06L43.70 6.81L45.86 6.81L45.86 8.19L45.96 8.19Q46.12 7.87 46.40 7.52Q46.68 7.18 47.14 6.94Q47.60 6.71 48.30 6.71L48.30 6.71Q49.21 6.71 49.96 7.18Q50.72 7.65 51.17 8.58Q51.62 9.52 51.62 10.92L51.62 10.92Q51.62 12.28 51.18 13.22Q50.74 14.17 49.98 14.65Q49.23 15.14 48.28 15.14L48.28 15.14Q47.62 15.14 47.16 14.91Q46.70 14.69 46.41 14.35Q46.12 14.02 45.96 13.69L45.96 13.69L45.90 13.69L45.90 18.06ZM47.61 13.37L47.61 13.37Q48.18 13.37 48.57 13.06Q48.97 12.74 49.17 12.19Q49.37 11.63 49.37 10.91L49.37 10.91Q49.37 10.20 49.17 9.65Q48.97 9.10 48.58 8.78Q48.19 8.47 47.61 8.47L47.61 8.47Q47.05 8.47 46.65 8.77Q46.26 9.07 46.05 9.62Q45.85 10.17 45.85 10.91L45.85 10.91Q45.85 11.65 46.05 12.21Q46.26 12.76 46.66 13.07Q47.05 13.37 47.61 13.37ZM54.47 15L52.23 15L52.23 4.09L56.49 4.09Q57.73 4.09 58.60 4.56Q59.48 5.03 59.93 5.86Q60.39 6.69 60.39 7.77L60.39 7.77Q60.39 8.85 59.93 9.68Q59.46 10.50 58.58 10.97Q57.70 11.43 56.44 11.43L56.44 11.43L53.70 11.43L53.70 9.63L56.08 9.63Q56.77 9.63 57.21 9.39Q57.65 9.16 57.87 8.74Q58.08 8.32 58.08 7.77L58.08 7.77Q58.08 7.22 57.87 6.80Q57.65 6.39 57.20 6.16Q56.76 5.93 56.07 5.93L56.07 5.93L54.47 5.93L54.47 15ZM60.92 4.09L63.12 4.09L63.12 15L60.92 15L60.92 4.09ZM66.30 15.16L66.30 15.16Q65.52 15.16 64.90 14.89Q64.29 14.61 63.93 14.07Q63.58 13.52 63.58 12.71L63.58 12.71Q63.58 12.03 63.83 11.56Q64.08 11.10 64.52 10.83Q64.95 10.55 65.51 10.40Q66.06 10.25 66.67 10.20L66.67 10.20Q67.38 10.12 67.81 10.06Q68.25 10.00 68.45 9.86Q68.65 9.73 68.65 9.46L68.65 9.46L68.65 9.43Q68.65 9.07 68.50 8.83Q68.36 8.59 68.07 8.46Q67.79 8.33 67.37 8.33L67.37 8.33Q66.94 8.33 66.63 8.46Q66.31 8.59 66.12 8.80Q65.92 9.02 65.82 9.28L65.82 9.28L63.81 8.94Q64.02 8.23 64.51 7.73Q65.00 7.24 65.73 6.97Q66.46 6.71 67.37 6.71L67.37 6.71Q68.04 6.71 68.66 6.87Q69.28 7.02 69.78 7.35Q70.27 7.68 70.56 8.21Q70.85 8.74 70.85 9.48L70.85 9.48L70.85 15L68.77 15L68.77 13.86L68.69 13.86Q68.50 14.25 68.17 14.53Q67.84 14.82 67.37 14.99Q66.91 15.16 66.30 15.16ZM66.92 13.62L66.92 13.62Q67.44 13.62 67.83 13.41Q68.23 13.21 68.45 12.85Q68.67 12.50 68.67 12.07L68.67 12.07L68.67 11.18Q68.57 11.26 68.37 11.32Q68.17 11.37 67.93 11.42Q67.69 11.46 67.46 11.50Q67.22 11.54 67.04 11.56L67.04 11.56Q66.64 11.62 66.33 11.75Q66.02 11.88 65.85 12.10Q65.68 12.31 65.68 12.65L65.68 12.65Q65.68 12.96 65.85 13.18Q66.01 13.40 66.28 13.51Q66.56 13.62 66.92 13.62ZM73.95 10.26L73.95 10.26L73.95 15L71.75 15L71.75 6.81L73.82 6.81L73.86 8.85L73.73 8.85Q74.05 7.83 74.70 7.27Q75.36 6.71 76.40 6.71L76.40 6.71Q77.25 6.71 77.88 7.08Q78.51 7.45 78.86 8.14Q79.21 8.83 79.21 9.79L79.21 9.79L79.21 15L77.01 15L77.01 10.17Q77.01 9.41 76.62 8.98Q76.23 8.55 75.53 8.55L75.53 8.55Q75.07 8.55 74.71 8.75Q74.35 8.95 74.15 9.33Q73.95 9.71 73.95 10.26ZM82.31 10.26L82.31 10.26L82.31 15L80.11 15L80.11 6.81L82.18 6.81L82.22 8.85L82.09 8.85Q82.41 7.83 83.07 7.27Q83.72 6.71 84.76 6.71L84.76 6.71Q85.61 6.71 86.24 7.08Q86.87 7.45 87.22 8.14Q87.57 8.83 87.57 9.79L87.57 9.79L87.57 15L85.38 15L85.38 10.17Q85.38 9.41 84.99 8.98Q84.59 8.55 83.90 8.55L83.90 8.55Q83.44 8.55 83.07 8.75Q82.71 8.95 82.51 9.33Q82.31 9.71 82.31 10.26ZM92.17 15.16L92.17 15.16Q90.92 15.16 90.01 14.65Q89.10 14.14 88.62 13.19Q88.13 12.25 88.13 10.95L88.13 10.95Q88.13 9.68 88.61 8.73Q89.10 7.78 89.98 7.24Q90.87 6.71 92.06 6.71L92.06 6.71Q92.87 6.71 93.57 6.97Q94.26 7.22 94.79 7.74Q95.32 8.25 95.61 9.03Q95.91 9.81 95.91 10.86L95.91 10.86L95.91 11.48L89.03 11.48L89.03 10.10L94.83 10.10L93.81 10.47Q93.81 9.83 93.61 9.36Q93.42 8.88 93.03 8.62Q92.65 8.36 92.08 8.36L92.08 8.36Q91.51 8.36 91.12 8.63Q90.72 8.89 90.51 9.34Q90.31 9.79 90.31 10.37L90.31 10.37L90.31 11.35Q90.31 12.06 90.54 12.54Q90.78 13.02 91.21 13.26Q91.64 13.51 92.21 13.51L92.21 13.51Q92.60 13.51 92.91 13.40Q93.23 13.29 93.45 13.07Q93.68 12.85 93.79 12.54L93.79 12.54L95.78 12.91Q95.59 13.59 95.10 14.10Q94.61 14.60 93.87 14.88Q93.13 15.16 92.17 15.16ZM98.63 15L96.44 15L96.44 6.81L98.56 6.81L98.56 8.24L98.65 8.24Q98.87 7.48 99.41 7.09Q99.94 6.70 100.62 6.70L100.62 6.70Q100.79 6.70 100.99 6.72Q101.18 6.74 101.34 6.77L101.34 6.77L101.34 8.74Q101.19 8.69 100.91 8.66Q100.63 8.63 100.38 8.63L100.38 8.63Q99.89 8.63 99.48 8.84Q99.08 9.06 98.86 9.44Q98.63 9.83 98.63 10.34L98.63 10.34L98.63 15Z"/></g>
        
      </svg>
    